<svg width="64" height="64" viewBox="0 0 64 64" fill="none" xmlns="http://www.w3.org/2000/svg">
  <defs>
    <style>
      .elephant-fill { fill: #D3D3D3; }
      .elephant-outline { stroke: #4A4A4A; stroke-width: 1.5; stroke-linecap: round; stroke-linejoin: round; }
      .book-top { fill: #FFC40E; }
      .book-bottom { fill: #3BB6D5; }
      .book-outline { stroke: #4A4A4A; stroke-width: 1.5; stroke-linecap: round; stroke-linejoin: round; }
    </style>
  </defs>
  
  <!-- Book -->
  <rect x="12" y="45" width="40" height="14" class="book-top book-outline" stroke="none"/>
  <rect x="12" y="45" width="40" height="14" class="book-outline" fill="none"/>
  
  <!-- Bottom of book (spine) -->
  <rect x="12" y="52" width="40" height="7" class="book-bottom book-outline" stroke="none"/>
  
  <!-- Book crease -->
  <line x1="32" y1="45" x2="32" y2="59" class="book-outline" stroke="#4A4A4A"/>
  
  <!-- Elephant body -->
  <ellipse cx="32" cy="38" rx="12" ry="10" class="elephant-fill elephant-outline"/>
  
  <!-- Elephant head -->
  <ellipse cx="32" cy="30" rx="10" ry="9" class="elephant-fill elephant-outline"/>
  
  <!-- Elephant ears -->
  <ellipse cx="24" cy="30" rx="5" ry="8" class="elephant-fill elephant-outline"/>
  <ellipse cx="40" cy="30" rx="5" ry="8" class="elephant-fill elephant-outline"/>
  
  <!-- Elephant trunk -->
  <path d="M 30 35 Q 30 40 28 42 Q 26 Remix" class="elephant-outline" fill="none"/>
  <path d="M 30 40 Q 30 42 29 43" class="elephant-outline" fill="none"/>
  
  <!-- Eye -->
  <circle cx="30" cy="28" r="1.5" fill="#4A4A4A"/>
  <circle cx="34" cy="28" r="1.5" fill="#4A4A4A"/>
  
  <!-- Elephant legs on book -->
  <ellipse cx="26" cy="42" rx="3" ry="4" class="elephant-fill elephant-outline"/>
  <ellipse cx="38" cy="42" rx="3" ry="4" class="elephant-fill elephant-outline"/>
</svg>

